# xmcd
#
# Track frame offsets:
#	150
#	18617
#	36446
#	54159
#	72082
#	88933
#	104205
#	124103
#	142286
#	159017
#	174777
#	189304
#	213306
#
# Disc length: 3082 seconds
#
# Revision: 0
# Processed by: cddbd v1.5.2PL0 Copyright (c) Steve Scherf et al.
# Submitted via: EasyCDDAExtractor 10.2.0.1
#
DISCID=b50c080d
DTITLE=Billy Ray Cyrus - Home At Last
DYEAR=2007
DGENRE=Country
TTITLE0=Ready, Set, Don't Go
TTITLE1=The Beginning
TTITLE2=The Buffalo
TTITLE3=Flying By
TTITLE4=Brown Eyed Girl
TTITLE5=Don't Give Up On Me
TTITLE6=You've Got A Friend
TTITLE7=You Can't Lose Mex
TTITLE8=I Can't Live Without Your Lovexx
TTITLE9=My Everything
TTITLE10=Put A Little Love In Your Heart
TTITLE11=Over The Rainbow
TTITLE12=Standxxx - Bonus Track
EXTD=
EXTT0=
EXTT1=
EXTT2=
EXTT3=
EXTT4=
EXTT5=
EXTT6=
EXTT7=
EXTT8=
EXTT9=
EXTT10=
EXTT11=
EXTT12=
PLAYORDER=
